# xmcd
#
# Track frame offsets:
#	150
#	19306
#	43889
#	80398
#	109732
#	126866
#	145622
#	168567
#	183904
#	202767
#	228431
#	253191
#	263498
#
# Disc length: 4036 seconds
#
# Revision: 1
# Processed by: cddbd v1.5.2PL0 Copyright (c) Steve Scherf et al.
# Submitted via: audiograbber 1.83.01
#
DISCID=ab0fc20d
DTITLE=Boky citom - Prvotinka
DYEAR=1900
DGENRE=Blues-Rock
TTITLE0=Tak toto sa mi stava
TTITLE1=Hadaj komu Jano
TTITLE2=Dobru noc
TTITLE3=Toto naozaj nemam rad
TTITLE4=Poslednou dobou
TTITLE5=Dopil som
TTITLE6=Laska o pravde
TTITLE7=Tancu tancuj
TTITLE8=Stara piesen
TTITLE9=Pila moja
TTITLE10=Je ti 30
TTITLE11=Uz mam 100 chuti
TTITLE12=Dobru noc s violoncelom
EXTD=
EXTT0=
EXTT1=
EXTT2=
EXTT3=
EXTT4=
EXTT5=
EXTT6=
EXTT7=
EXTT8=
EXTT9=
EXTT10=
EXTT11=
EXTT12=
PLAYORDER=
